# xmcd
#
# Track frame offsets: 
#        150
#        21412
#        44100
#        65325
#        99072
#
# Disc length: 4440 seconds
#
# Revision: 1
# Processed by: cddbd v1.5.2PL0 Copyright (c) Steve Scherf et al.
# Submitted via: ExactAudioCopy v1.3
#
DISCID=3c115605
DTITLE=上原多香子 - Make-up Shadow
DYEAR=2003
DGENRE=JPop
TTITLE0=Make-up Shadow
TTITLE1=白いページの中に
TTITLE2=Make-up Shadow (Instrumental)
TTITLE3=白いページの中に (Instrumental)
TTITLE4=data
EXTD=YEAR: 2003
EXTT0=
EXTT1=
EXTT2=
EXTT3=
EXTT4=
PLAYORDER=
